<mxfile host="app.diagrams.net" agent="Mozilla/5.0 (Windows NT 10.0; Win64; x64; rv:132.0) Gecko/20100101 Firefox/132.0" version="24.9.0">
  <diagram id="C5RBs43oDa-KdzZeNtuy" name="Page-1">
    <mxGraphModel dx="2901" dy="2255" grid="1" gridSize="10" guides="1" tooltips="1" connect="1" arrows="1" fold="1" page="1" pageScale="1" pageWidth="827" pageHeight="1169" math="1" shadow="0">
      <root>
        <mxCell id="WIyWlLk6GJQsqaUBKTNV-0" />
        <mxCell id="WIyWlLk6GJQsqaUBKTNV-1" parent="WIyWlLk6GJQsqaUBKTNV-0" />
        <mxCell id="rZa_sODycS4ORoVSW2ID-123" value="Backend" style="rounded=1;whiteSpace=wrap;html=1;arcSize=5;align=center;labelPosition=center;verticalLabelPosition=top;verticalAlign=bottom;fillColor=#d5e8d4;strokeColor=#82b366;" parent="WIyWlLk6GJQsqaUBKTNV-1" vertex="1">
          <mxGeometry x="1190" y="122.5" width="500" height="220" as="geometry" />
        </mxCell>
        <mxCell id="rZa_sODycS4ORoVSW2ID-9" value="Stratified 80/20 Dataset Split" style="rounded=1;whiteSpace=wrap;html=1;labelPosition=center;verticalLabelPosition=top;align=center;verticalAlign=bottom;arcSize=6;textDirection=ltr;fillColor=#dae8fc;strokeColor=#6c8ebf;" parent="WIyWlLk6GJQsqaUBKTNV-1" vertex="1">
          <mxGeometry x="270" y="-90" width="410" height="240" as="geometry" />
        </mxCell>
        <mxCell id="rZa_sODycS4ORoVSW2ID-6" value="Wikipedia" style="rounded=1;whiteSpace=wrap;html=1;dashed=1;dashPattern=8 8;" parent="WIyWlLk6GJQsqaUBKTNV-1" vertex="1">
          <mxGeometry x="1840" y="180" width="120" height="60" as="geometry" />
        </mxCell>
        <mxCell id="rZa_sODycS4ORoVSW2ID-27" style="edgeStyle=orthogonalEdgeStyle;rounded=0;orthogonalLoop=1;jettySize=auto;html=1;exitX=0.5;exitY=1;exitDx=0;exitDy=0;entryX=0.5;entryY=0;entryDx=0;entryDy=0;" parent="WIyWlLk6GJQsqaUBKTNV-1" source="rZa_sODycS4ORoVSW2ID-10" target="rZa_sODycS4ORoVSW2ID-12" edge="1">
          <mxGeometry relative="1" as="geometry" />
        </mxCell>
        <mxCell id="rZa_sODycS4ORoVSW2ID-10" value="Randomly Sample 80%" style="rounded=1;whiteSpace=wrap;html=1;" parent="WIyWlLk6GJQsqaUBKTNV-1" vertex="1">
          <mxGeometry x="310" y="-60" width="340" height="30" as="geometry" />
        </mxCell>
        <mxCell id="rZa_sODycS4ORoVSW2ID-26" style="edgeStyle=orthogonalEdgeStyle;rounded=0;orthogonalLoop=1;jettySize=auto;html=1;exitX=1;exitY=0.5;exitDx=0;exitDy=0;entryX=0.5;entryY=1;entryDx=0;entryDy=0;" parent="WIyWlLk6GJQsqaUBKTNV-1" source="rZa_sODycS4ORoVSW2ID-11" target="rZa_sODycS4ORoVSW2ID-16" edge="1">
          <mxGeometry relative="1" as="geometry">
            <Array as="points">
              <mxPoint x="720" y="55" />
              <mxPoint x="720" y="-100" />
              <mxPoint x="785" y="-100" />
            </Array>
          </mxGeometry>
        </mxCell>
        <mxCell id="rZa_sODycS4ORoVSW2ID-29" style="edgeStyle=orthogonalEdgeStyle;rounded=0;orthogonalLoop=1;jettySize=auto;html=1;exitX=0.5;exitY=1;exitDx=0;exitDy=0;" parent="WIyWlLk6GJQsqaUBKTNV-1" source="rZa_sODycS4ORoVSW2ID-11" target="rZa_sODycS4ORoVSW2ID-13" edge="1">
          <mxGeometry relative="1" as="geometry" />
        </mxCell>
        <mxCell id="rZa_sODycS4ORoVSW2ID-11" value="Calculate Approx. Class Distributions post Augmentation" style="rounded=1;whiteSpace=wrap;html=1;labelPosition=center;verticalLabelPosition=middle;align=center;verticalAlign=top;" parent="WIyWlLk6GJQsqaUBKTNV-1" vertex="1">
          <mxGeometry x="310" y="40" width="340" height="30" as="geometry" />
        </mxCell>
        <mxCell id="rZa_sODycS4ORoVSW2ID-28" style="edgeStyle=orthogonalEdgeStyle;rounded=0;orthogonalLoop=1;jettySize=auto;html=1;exitX=0.5;exitY=1;exitDx=0;exitDy=0;entryX=0.5;entryY=0;entryDx=0;entryDy=0;" parent="WIyWlLk6GJQsqaUBKTNV-1" source="rZa_sODycS4ORoVSW2ID-12" target="rZa_sODycS4ORoVSW2ID-11" edge="1">
          <mxGeometry relative="1" as="geometry" />
        </mxCell>
        <mxCell id="rZa_sODycS4ORoVSW2ID-12" value="Calculate Class Distributions on Subset" style="rounded=1;whiteSpace=wrap;html=1;" parent="WIyWlLk6GJQsqaUBKTNV-1" vertex="1">
          <mxGeometry x="310" y="-10" width="340" height="30" as="geometry" />
        </mxCell>
        <mxCell id="rZa_sODycS4ORoVSW2ID-13" value="Perform Stratified Split using adjusted Distributions" style="rounded=1;whiteSpace=wrap;html=1;" parent="WIyWlLk6GJQsqaUBKTNV-1" vertex="1">
          <mxGeometry x="310" y="90" width="340" height="30" as="geometry" />
        </mxCell>
        <mxCell id="rZa_sODycS4ORoVSW2ID-16" value="&lt;br&gt;\[\text{Adjusted_Count}_i = \min\left\{&lt;br&gt;\begin{array}{l}&lt;br&gt;\text{MAX_AUGMENT} \times \text{Original_Count}_i \\&lt;br&gt;\max_{j \in \{1, \dots, N\}}(\text{Sample_Count}_j)&lt;br&gt;\end{array}&lt;br&gt;\right.\]&lt;div&gt;&lt;br&gt;&lt;/div&gt;&lt;div&gt;&lt;br/&gt;&lt;/div&gt;" style="text;html=1;align=center;verticalAlign=middle;whiteSpace=wrap;rounded=0;" parent="WIyWlLk6GJQsqaUBKTNV-1" vertex="1">
          <mxGeometry x="580" y="-200" width="410" height="70" as="geometry" />
        </mxCell>
        <mxCell id="rZa_sODycS4ORoVSW2ID-86" style="edgeStyle=orthogonalEdgeStyle;rounded=0;orthogonalLoop=1;jettySize=auto;html=1;exitX=1;exitY=0.75;exitDx=0;exitDy=0;entryX=0;entryY=0.5;entryDx=0;entryDy=0;" parent="WIyWlLk6GJQsqaUBKTNV-1" source="rZa_sODycS4ORoVSW2ID-20" target="rZa_sODycS4ORoVSW2ID-63" edge="1">
          <mxGeometry relative="1" as="geometry" />
        </mxCell>
        <mxCell id="rZa_sODycS4ORoVSW2ID-20" value="Preprocessing" style="rounded=1;whiteSpace=wrap;html=1;labelPosition=center;verticalLabelPosition=top;align=center;verticalAlign=bottom;arcSize=6;textDirection=ltr;fillColor=#e1d5e7;strokeColor=#9673a6;gradientColor=#F8CECC;gradientDirection=east;" parent="WIyWlLk6GJQsqaUBKTNV-1" vertex="1">
          <mxGeometry x="270" y="300" width="410" height="120" as="geometry" />
        </mxCell>
        <mxCell id="rZa_sODycS4ORoVSW2ID-21" value="Raw Train" style="shape=cylinder3;whiteSpace=wrap;html=1;boundedLbl=1;backgroundOutline=1;size=15;fillColor=#e1d5e7;strokeColor=#9673a6;" parent="WIyWlLk6GJQsqaUBKTNV-1" vertex="1">
          <mxGeometry x="330" y="190" width="70" height="80" as="geometry" />
        </mxCell>
        <mxCell id="rZa_sODycS4ORoVSW2ID-22" value="Raw Val" style="shape=cylinder3;whiteSpace=wrap;html=1;boundedLbl=1;backgroundOutline=1;size=15;fillColor=#f8cecc;strokeColor=#b85450;" parent="WIyWlLk6GJQsqaUBKTNV-1" vertex="1">
          <mxGeometry x="550" y="190" width="70" height="80" as="geometry" />
        </mxCell>
        <mxCell id="rZa_sODycS4ORoVSW2ID-39" style="edgeStyle=orthogonalEdgeStyle;rounded=0;orthogonalLoop=1;jettySize=auto;html=1;exitX=0.75;exitY=1;exitDx=0;exitDy=0;entryX=0.743;entryY=0.007;entryDx=0;entryDy=0;entryPerimeter=0;" parent="WIyWlLk6GJQsqaUBKTNV-1" edge="1">
          <mxGeometry relative="1" as="geometry">
            <mxPoint x="589.88" y="349.79" as="sourcePoint" />
            <mxPoint x="589.9300000000002" y="370.00000000000006" as="targetPoint" />
          </mxGeometry>
        </mxCell>
        <mxCell id="rZa_sODycS4ORoVSW2ID-23" value="Resizing to match Model Input" style="rounded=1;whiteSpace=wrap;html=1;fillStyle=solid;" parent="WIyWlLk6GJQsqaUBKTNV-1" vertex="1">
          <mxGeometry x="300" y="320" width="350" height="30" as="geometry" />
        </mxCell>
        <mxCell id="rZa_sODycS4ORoVSW2ID-24" value="Normalize Pixel Values" style="rounded=1;whiteSpace=wrap;html=1;" parent="WIyWlLk6GJQsqaUBKTNV-1" vertex="1">
          <mxGeometry x="300" y="370" width="350" height="30" as="geometry" />
        </mxCell>
        <mxCell id="rZa_sODycS4ORoVSW2ID-32" style="edgeStyle=orthogonalEdgeStyle;rounded=0;orthogonalLoop=1;jettySize=auto;html=1;exitX=0.5;exitY=1;exitDx=0;exitDy=0;entryX=0.5;entryY=0;entryDx=0;entryDy=0;entryPerimeter=0;" parent="WIyWlLk6GJQsqaUBKTNV-1" source="rZa_sODycS4ORoVSW2ID-13" target="rZa_sODycS4ORoVSW2ID-21" edge="1">
          <mxGeometry relative="1" as="geometry">
            <Array as="points">
              <mxPoint x="480" y="170" />
              <mxPoint x="365" y="170" />
            </Array>
          </mxGeometry>
        </mxCell>
        <mxCell id="rZa_sODycS4ORoVSW2ID-33" style="edgeStyle=orthogonalEdgeStyle;rounded=0;orthogonalLoop=1;jettySize=auto;html=1;exitX=0.5;exitY=1;exitDx=0;exitDy=0;entryX=0.5;entryY=0;entryDx=0;entryDy=0;entryPerimeter=0;" parent="WIyWlLk6GJQsqaUBKTNV-1" source="rZa_sODycS4ORoVSW2ID-13" target="rZa_sODycS4ORoVSW2ID-22" edge="1">
          <mxGeometry relative="1" as="geometry">
            <mxPoint x="540" y="170" as="sourcePoint" />
            <mxPoint x="450" y="270" as="targetPoint" />
            <Array as="points">
              <mxPoint x="480" y="170" />
              <mxPoint x="585" y="170" />
            </Array>
          </mxGeometry>
        </mxCell>
        <mxCell id="rZa_sODycS4ORoVSW2ID-43" style="edgeStyle=orthogonalEdgeStyle;rounded=0;orthogonalLoop=1;jettySize=auto;html=1;exitX=1;exitY=0.5;exitDx=0;exitDy=0;entryX=0;entryY=0.5;entryDx=0;entryDy=0;" parent="WIyWlLk6GJQsqaUBKTNV-1" source="rZa_sODycS4ORoVSW2ID-41" target="rZa_sODycS4ORoVSW2ID-24" edge="1">
          <mxGeometry relative="1" as="geometry">
            <mxPoint x="210" y="340" as="targetPoint" />
          </mxGeometry>
        </mxCell>
        <mxCell id="rZa_sODycS4ORoVSW2ID-41" value="Calculate \(\mu\) &amp;amp; \(\sigma\)" style="rounded=1;whiteSpace=wrap;html=1;fillColor=#dae8fc;strokeColor=#6c8ebf;" parent="WIyWlLk6GJQsqaUBKTNV-1" vertex="1">
          <mxGeometry x="130" y="372.5" width="120" height="25" as="geometry" />
        </mxCell>
        <mxCell id="rZa_sODycS4ORoVSW2ID-47" style="edgeStyle=orthogonalEdgeStyle;rounded=0;orthogonalLoop=1;jettySize=auto;html=1;entryX=0.185;entryY=-0.007;entryDx=0;entryDy=0;entryPerimeter=0;" parent="WIyWlLk6GJQsqaUBKTNV-1" source="rZa_sODycS4ORoVSW2ID-21" target="rZa_sODycS4ORoVSW2ID-23" edge="1">
          <mxGeometry relative="1" as="geometry" />
        </mxCell>
        <mxCell id="rZa_sODycS4ORoVSW2ID-49" style="edgeStyle=orthogonalEdgeStyle;rounded=0;orthogonalLoop=1;jettySize=auto;html=1;exitX=0.75;exitY=1;exitDx=0;exitDy=0;entryX=0.743;entryY=0.007;entryDx=0;entryDy=0;entryPerimeter=0;" parent="WIyWlLk6GJQsqaUBKTNV-1" edge="1">
          <mxGeometry relative="1" as="geometry">
            <mxPoint x="359.88" y="350" as="sourcePoint" />
            <mxPoint x="359.88" y="370" as="targetPoint" />
          </mxGeometry>
        </mxCell>
        <mxCell id="rZa_sODycS4ORoVSW2ID-51" value="Per Class \(i\): Augmentation up to \(\text{Adjusted_Count}_i\) Samples" style="rounded=1;whiteSpace=wrap;html=1;labelPosition=center;verticalLabelPosition=top;align=center;verticalAlign=bottom;arcSize=6;textDirection=ltr;fillColor=#e1d5e7;strokeColor=#9673a6;" parent="WIyWlLk6GJQsqaUBKTNV-1" vertex="1">
          <mxGeometry x="400" y="460" width="350" height="120" as="geometry" />
        </mxCell>
        <mxCell id="rZa_sODycS4ORoVSW2ID-52" style="edgeStyle=orthogonalEdgeStyle;rounded=0;orthogonalLoop=1;jettySize=auto;html=1;exitX=0.25;exitY=1;exitDx=0;exitDy=0;entryX=0;entryY=0.25;entryDx=0;entryDy=0;" parent="WIyWlLk6GJQsqaUBKTNV-1" source="rZa_sODycS4ORoVSW2ID-20" target="rZa_sODycS4ORoVSW2ID-51" edge="1">
          <mxGeometry relative="1" as="geometry" />
        </mxCell>
        <mxCell id="rZa_sODycS4ORoVSW2ID-54" style="edgeStyle=orthogonalEdgeStyle;rounded=0;orthogonalLoop=1;jettySize=auto;html=1;entryX=0.815;entryY=-0.02;entryDx=0;entryDy=0;entryPerimeter=0;exitX=0.5;exitY=1;exitDx=0;exitDy=0;exitPerimeter=0;" parent="WIyWlLk6GJQsqaUBKTNV-1" source="rZa_sODycS4ORoVSW2ID-22" target="rZa_sODycS4ORoVSW2ID-23" edge="1">
          <mxGeometry relative="1" as="geometry">
            <mxPoint x="375" y="280" as="sourcePoint" />
            <mxPoint x="375" y="330" as="targetPoint" />
          </mxGeometry>
        </mxCell>
        <mxCell id="rZa_sODycS4ORoVSW2ID-58" value="Random Transform:" style="rounded=1;whiteSpace=wrap;html=1;labelPosition=center;verticalLabelPosition=top;align=center;verticalAlign=bottom;" parent="WIyWlLk6GJQsqaUBKTNV-1" vertex="1">
          <mxGeometry x="415" y="483.75" width="130" height="76.25" as="geometry" />
        </mxCell>
        <mxCell id="rZa_sODycS4ORoVSW2ID-55" value="Flips, Rotations" style="rounded=1;whiteSpace=wrap;html=1;dashed=1;" parent="WIyWlLk6GJQsqaUBKTNV-1" vertex="1">
          <mxGeometry x="430" y="500" width="100" height="20" as="geometry" />
        </mxCell>
        <mxCell id="rZa_sODycS4ORoVSW2ID-57" value="Color Jitter" style="rounded=1;whiteSpace=wrap;html=1;dashed=1;" parent="WIyWlLk6GJQsqaUBKTNV-1" vertex="1">
          <mxGeometry x="430" y="525" width="100" height="20" as="geometry" />
        </mxCell>
        <mxCell id="rZa_sODycS4ORoVSW2ID-59" value="Per Input Image: Synthetic Samples capped at \(\text{MAX_AUGMENT}\)" style="text;html=1;align=center;verticalAlign=middle;whiteSpace=wrap;rounded=0;" parent="WIyWlLk6GJQsqaUBKTNV-1" vertex="1">
          <mxGeometry x="570" y="480" width="140" height="80" as="geometry" />
        </mxCell>
        <mxCell id="rZa_sODycS4ORoVSW2ID-109" style="edgeStyle=orthogonalEdgeStyle;rounded=0;orthogonalLoop=1;jettySize=auto;html=1;exitX=1;exitY=0.75;exitDx=0;exitDy=0;entryX=0;entryY=0.5;entryDx=0;entryDy=0;" parent="WIyWlLk6GJQsqaUBKTNV-1" source="rZa_sODycS4ORoVSW2ID-67" target="rZa_sODycS4ORoVSW2ID-91" edge="1">
          <mxGeometry relative="1" as="geometry">
            <Array as="points">
              <mxPoint x="1150" y="106" />
              <mxPoint x="1150" y="300" />
            </Array>
          </mxGeometry>
        </mxCell>
        <mxCell id="rZa_sODycS4ORoVSW2ID-67" value="Classification Model Training &amp;amp; Eval" style="rounded=1;whiteSpace=wrap;html=1;labelPosition=center;verticalLabelPosition=top;align=center;verticalAlign=bottom;arcSize=6;textDirection=ltr;fillColor=#ADADAD;" parent="WIyWlLk6GJQsqaUBKTNV-1" vertex="1">
          <mxGeometry x="760" y="-50" width="340" height="207.5" as="geometry" />
        </mxCell>
        <mxCell id="rZa_sODycS4ORoVSW2ID-85" style="edgeStyle=orthogonalEdgeStyle;rounded=0;orthogonalLoop=1;jettySize=auto;html=1;exitX=0.5;exitY=0;exitDx=0;exitDy=0;exitPerimeter=0;entryX=0.5;entryY=1;entryDx=0;entryDy=0;" parent="WIyWlLk6GJQsqaUBKTNV-1" source="rZa_sODycS4ORoVSW2ID-60" target="rZa_sODycS4ORoVSW2ID-79" edge="1">
          <mxGeometry relative="1" as="geometry" />
        </mxCell>
        <mxCell id="rZa_sODycS4ORoVSW2ID-60" value="Test" style="shape=cylinder3;whiteSpace=wrap;html=1;boundedLbl=1;backgroundOutline=1;size=15;fillColor=#D5E8D4;strokeColor=#82B366;" parent="WIyWlLk6GJQsqaUBKTNV-1" vertex="1">
          <mxGeometry x="980" y="192.5" width="60" height="80" as="geometry" />
        </mxCell>
        <mxCell id="rZa_sODycS4ORoVSW2ID-80" style="edgeStyle=orthogonalEdgeStyle;rounded=0;orthogonalLoop=1;jettySize=auto;html=1;exitX=0.5;exitY=0;exitDx=0;exitDy=0;exitPerimeter=0;entryX=0.25;entryY=1;entryDx=0;entryDy=0;" parent="WIyWlLk6GJQsqaUBKTNV-1" source="rZa_sODycS4ORoVSW2ID-61" target="rZa_sODycS4ORoVSW2ID-77" edge="1">
          <mxGeometry relative="1" as="geometry" />
        </mxCell>
        <mxCell id="rZa_sODycS4ORoVSW2ID-61" value="Val" style="shape=cylinder3;whiteSpace=wrap;html=1;boundedLbl=1;backgroundOutline=1;size=15;fillColor=#f8cecc;strokeColor=#b85450;" parent="WIyWlLk6GJQsqaUBKTNV-1" vertex="1">
          <mxGeometry x="770" y="192.5" width="60" height="80" as="geometry" />
        </mxCell>
        <mxCell id="rZa_sODycS4ORoVSW2ID-63" value="50/50 test/val split" style="rounded=1;whiteSpace=wrap;html=1;fillColor=#D5E8D4;strokeColor=#1F1F1F;gradientColor=#F8CECC;gradientDirection=west;" parent="WIyWlLk6GJQsqaUBKTNV-1" vertex="1">
          <mxGeometry x="710" y="372.5" width="120" height="35" as="geometry" />
        </mxCell>
        <mxCell id="rZa_sODycS4ORoVSW2ID-64" style="edgeStyle=orthogonalEdgeStyle;rounded=0;orthogonalLoop=1;jettySize=auto;html=1;exitX=1;exitY=0.5;exitDx=0;exitDy=0;entryX=0.5;entryY=1;entryDx=0;entryDy=0;entryPerimeter=0;" parent="WIyWlLk6GJQsqaUBKTNV-1" source="rZa_sODycS4ORoVSW2ID-63" target="rZa_sODycS4ORoVSW2ID-60" edge="1">
          <mxGeometry relative="1" as="geometry">
            <Array as="points">
              <mxPoint x="1010" y="390" />
            </Array>
          </mxGeometry>
        </mxCell>
        <mxCell id="rZa_sODycS4ORoVSW2ID-65" style="edgeStyle=orthogonalEdgeStyle;rounded=0;orthogonalLoop=1;jettySize=auto;html=1;exitX=0.5;exitY=0;exitDx=0;exitDy=0;entryX=0.5;entryY=1;entryDx=0;entryDy=0;entryPerimeter=0;" parent="WIyWlLk6GJQsqaUBKTNV-1" source="rZa_sODycS4ORoVSW2ID-63" target="rZa_sODycS4ORoVSW2ID-61" edge="1">
          <mxGeometry relative="1" as="geometry" />
        </mxCell>
        <mxCell id="rZa_sODycS4ORoVSW2ID-84" style="edgeStyle=orthogonalEdgeStyle;rounded=0;orthogonalLoop=1;jettySize=auto;html=1;exitX=1;exitY=0.5;exitDx=0;exitDy=0;entryX=0;entryY=0.5;entryDx=0;entryDy=0;" parent="WIyWlLk6GJQsqaUBKTNV-1" source="rZa_sODycS4ORoVSW2ID-77" target="rZa_sODycS4ORoVSW2ID-79" edge="1">
          <mxGeometry relative="1" as="geometry" />
        </mxCell>
        <mxCell id="rZa_sODycS4ORoVSW2ID-77" value="Train" style="rounded=1;whiteSpace=wrap;html=1;labelPosition=center;verticalLabelPosition=top;align=left;verticalAlign=bottom;fillStyle=auto;fillColor=#f5f5f5;fontColor=#333333;strokeColor=#666666;" parent="WIyWlLk6GJQsqaUBKTNV-1" vertex="1">
          <mxGeometry x="780" y="-25" width="140" height="170" as="geometry" />
        </mxCell>
        <mxCell id="rZa_sODycS4ORoVSW2ID-68" value="&lt;div&gt;Custom CNN:&amp;nbsp;&lt;/div&gt;&lt;div&gt;From Scratch&lt;/div&gt;" style="rounded=1;whiteSpace=wrap;html=1;dashed=1;" parent="WIyWlLk6GJQsqaUBKTNV-1" vertex="1">
          <mxGeometry x="790" y="-10" width="120" height="40" as="geometry" />
        </mxCell>
        <mxCell id="rZa_sODycS4ORoVSW2ID-69" value="VGG19: Finetune" style="rounded=1;whiteSpace=wrap;html=1;dashed=1;" parent="WIyWlLk6GJQsqaUBKTNV-1" vertex="1">
          <mxGeometry x="790" y="40" width="120" height="40" as="geometry" />
        </mxCell>
        <mxCell id="rZa_sODycS4ORoVSW2ID-70" value="ViT: Finetune" style="rounded=1;whiteSpace=wrap;html=1;dashed=1;" parent="WIyWlLk6GJQsqaUBKTNV-1" vertex="1">
          <mxGeometry x="790" y="90" width="120" height="40" as="geometry" />
        </mxCell>
        <mxCell id="rZa_sODycS4ORoVSW2ID-81" style="edgeStyle=orthogonalEdgeStyle;rounded=0;orthogonalLoop=1;jettySize=auto;html=1;exitX=0.5;exitY=0;exitDx=0;exitDy=0;exitPerimeter=0;entryX=0.75;entryY=1;entryDx=0;entryDy=0;" parent="WIyWlLk6GJQsqaUBKTNV-1" source="rZa_sODycS4ORoVSW2ID-71" target="rZa_sODycS4ORoVSW2ID-77" edge="1">
          <mxGeometry relative="1" as="geometry" />
        </mxCell>
        <mxCell id="rZa_sODycS4ORoVSW2ID-71" value="Augmented Train" style="shape=cylinder3;whiteSpace=wrap;html=1;boundedLbl=1;backgroundOutline=1;size=15;fillColor=#e1d5e7;strokeColor=#9673a6;" parent="WIyWlLk6GJQsqaUBKTNV-1" vertex="1">
          <mxGeometry x="840" y="187.5" width="90" height="90" as="geometry" />
        </mxCell>
        <mxCell id="rZa_sODycS4ORoVSW2ID-72" style="edgeStyle=orthogonalEdgeStyle;rounded=0;orthogonalLoop=1;jettySize=auto;html=1;exitX=1;exitY=0.5;exitDx=0;exitDy=0;entryX=0.5;entryY=1;entryDx=0;entryDy=0;entryPerimeter=0;" parent="WIyWlLk6GJQsqaUBKTNV-1" source="rZa_sODycS4ORoVSW2ID-51" target="rZa_sODycS4ORoVSW2ID-71" edge="1">
          <mxGeometry relative="1" as="geometry" />
        </mxCell>
        <mxCell id="rZa_sODycS4ORoVSW2ID-89" style="edgeStyle=orthogonalEdgeStyle;rounded=0;orthogonalLoop=1;jettySize=auto;html=1;exitX=1;exitY=0.75;exitDx=0;exitDy=0;entryX=0;entryY=0.25;entryDx=0;entryDy=0;" parent="WIyWlLk6GJQsqaUBKTNV-1" source="rZa_sODycS4ORoVSW2ID-73" target="rZa_sODycS4ORoVSW2ID-9" edge="1">
          <mxGeometry relative="1" as="geometry" />
        </mxCell>
        <mxCell id="rZa_sODycS4ORoVSW2ID-117" style="edgeStyle=orthogonalEdgeStyle;rounded=0;orthogonalLoop=1;jettySize=auto;html=1;exitX=0.25;exitY=1;exitDx=0;exitDy=0;entryX=0.75;entryY=1;entryDx=0;entryDy=0;" parent="WIyWlLk6GJQsqaUBKTNV-1" source="rZa_sODycS4ORoVSW2ID-73" target="rZa_sODycS4ORoVSW2ID-106" edge="1">
          <mxGeometry relative="1" as="geometry">
            <Array as="points">
              <mxPoint x="-87" y="660" />
              <mxPoint x="1590" y="660" />
            </Array>
          </mxGeometry>
        </mxCell>
        <mxCell id="rZa_sODycS4ORoVSW2ID-118" value="grabs random image of representative set per class" style="edgeLabel;html=1;align=center;verticalAlign=middle;resizable=0;points=[];" parent="rZa_sODycS4ORoVSW2ID-117" vertex="1" connectable="0">
          <mxGeometry x="0.398" y="4" relative="1" as="geometry">
            <mxPoint as="offset" />
          </mxGeometry>
        </mxCell>
        <mxCell id="rZa_sODycS4ORoVSW2ID-124" style="edgeStyle=orthogonalEdgeStyle;rounded=0;orthogonalLoop=1;jettySize=auto;html=1;exitX=0.75;exitY=1;exitDx=0;exitDy=0;entryX=0;entryY=0.5;entryDx=0;entryDy=0;" parent="WIyWlLk6GJQsqaUBKTNV-1" source="rZa_sODycS4ORoVSW2ID-73" target="rZa_sODycS4ORoVSW2ID-41" edge="1">
          <mxGeometry relative="1" as="geometry" />
        </mxCell>
        <mxCell id="rZa_sODycS4ORoVSW2ID-73" value="Dataset Aquisition" style="rounded=1;whiteSpace=wrap;html=1;labelPosition=center;verticalLabelPosition=top;align=center;verticalAlign=bottom;arcSize=6;textDirection=ltr;fillColor=#dae8fc;strokeColor=#6c8ebf;" parent="WIyWlLk6GJQsqaUBKTNV-1" vertex="1">
          <mxGeometry x="-190" y="80" width="410" height="240" as="geometry" />
        </mxCell>
        <mxCell id="rZa_sODycS4ORoVSW2ID-74" value="&lt;div&gt;Scrape Dataset:&lt;/div&gt;&lt;div&gt;~50k Images, 43 classes&lt;br&gt;&lt;/div&gt;" style="rounded=1;whiteSpace=wrap;html=1;" parent="WIyWlLk6GJQsqaUBKTNV-1" vertex="1">
          <mxGeometry x="-170" y="100" width="120" height="60" as="geometry" />
        </mxCell>
        <mxCell id="rZa_sODycS4ORoVSW2ID-75" value="&lt;font style=&quot;font-size: 36px;&quot;&gt;SECTION WIP&lt;br&gt;&lt;/font&gt;" style="text;html=1;align=center;verticalAlign=middle;whiteSpace=wrap;rounded=0;fillColor=#f8cecc;strokeColor=#b85450;" parent="WIyWlLk6GJQsqaUBKTNV-1" vertex="1">
          <mxGeometry x="-110" y="170" width="270" height="120" as="geometry" />
        </mxCell>
        <mxCell id="rZa_sODycS4ORoVSW2ID-78" value="Per Class: Handpick representative Images for Visualization Purposes in Frontend" style="rounded=1;whiteSpace=wrap;html=1;" parent="WIyWlLk6GJQsqaUBKTNV-1" vertex="1">
          <mxGeometry x="-30" y="100" width="220" height="60" as="geometry" />
        </mxCell>
        <mxCell id="rZa_sODycS4ORoVSW2ID-79" value="Evaluation" style="rounded=1;whiteSpace=wrap;html=1;labelPosition=center;verticalLabelPosition=top;align=left;verticalAlign=bottom;fillColor=#f5f5f5;fontColor=#333333;strokeColor=#666666;" parent="WIyWlLk6GJQsqaUBKTNV-1" vertex="1">
          <mxGeometry x="940" y="-25" width="140" height="170" as="geometry" />
        </mxCell>
        <mxCell id="rZa_sODycS4ORoVSW2ID-82" value="&lt;div&gt;Possible Class Imbalance:&amp;nbsp;&lt;/div&gt;&lt;div&gt;Weighted F1 Score&lt;/div&gt;" style="rounded=1;whiteSpace=wrap;html=1;dashed=1;" parent="WIyWlLk6GJQsqaUBKTNV-1" vertex="1">
          <mxGeometry x="950" y="-10" width="120" height="60" as="geometry" />
        </mxCell>
        <mxCell id="rZa_sODycS4ORoVSW2ID-83" value="Many similar looking Mushrooms: Top-K Accuracy" style="rounded=1;whiteSpace=wrap;html=1;dashed=1;" parent="WIyWlLk6GJQsqaUBKTNV-1" vertex="1">
          <mxGeometry x="950" y="70" width="120" height="60" as="geometry" />
        </mxCell>
        <mxCell id="rZa_sODycS4ORoVSW2ID-91" value="Best Performing Model Instance" style="rounded=1;whiteSpace=wrap;html=1;" parent="WIyWlLk6GJQsqaUBKTNV-1" vertex="1">
          <mxGeometry x="1270" y="270" width="120" height="60" as="geometry" />
        </mxCell>
        <mxCell id="rZa_sODycS4ORoVSW2ID-104" value="Frontend" style="rounded=1;whiteSpace=wrap;html=1;labelPosition=center;verticalLabelPosition=top;align=center;verticalAlign=bottom;fillColor=#ffe6cc;strokeColor=#d79b00;" parent="WIyWlLk6GJQsqaUBKTNV-1" vertex="1">
          <mxGeometry x="1190" width="500" height="100" as="geometry" />
        </mxCell>
        <mxCell id="rZa_sODycS4ORoVSW2ID-107" style="edgeStyle=orthogonalEdgeStyle;rounded=0;orthogonalLoop=1;jettySize=auto;html=1;exitX=0.5;exitY=1;exitDx=0;exitDy=0;entryX=0;entryY=0.5;entryDx=0;entryDy=0;" parent="WIyWlLk6GJQsqaUBKTNV-1" source="rZa_sODycS4ORoVSW2ID-105" target="rZa_sODycS4ORoVSW2ID-106" edge="1">
          <mxGeometry relative="1" as="geometry" />
        </mxCell>
        <mxCell id="rZa_sODycS4ORoVSW2ID-108" value="sends" style="edgeLabel;html=1;align=center;verticalAlign=middle;resizable=0;points=[];" parent="rZa_sODycS4ORoVSW2ID-107" vertex="1" connectable="0">
          <mxGeometry x="-0.0795" relative="1" as="geometry">
            <mxPoint as="offset" />
          </mxGeometry>
        </mxCell>
        <mxCell id="rZa_sODycS4ORoVSW2ID-105" value="User Uploads Mushroom Image" style="rounded=1;whiteSpace=wrap;html=1;" parent="WIyWlLk6GJQsqaUBKTNV-1" vertex="1">
          <mxGeometry x="1210" y="20" width="120" height="60" as="geometry" />
        </mxCell>
        <mxCell id="rZa_sODycS4ORoVSW2ID-112" style="edgeStyle=orthogonalEdgeStyle;rounded=0;orthogonalLoop=1;jettySize=auto;html=1;exitX=0.25;exitY=1;exitDx=0;exitDy=0;entryX=1;entryY=0.5;entryDx=0;entryDy=0;startArrow=classic;startFill=1;" parent="WIyWlLk6GJQsqaUBKTNV-1" source="rZa_sODycS4ORoVSW2ID-106" target="rZa_sODycS4ORoVSW2ID-91" edge="1">
          <mxGeometry relative="1" as="geometry" />
        </mxCell>
        <mxCell id="rZa_sODycS4ORoVSW2ID-114" value="&lt;div&gt;inference on&lt;/div&gt;&lt;div&gt;preprocessed image&lt;br&gt;&lt;/div&gt;" style="edgeLabel;html=1;align=center;verticalAlign=middle;resizable=0;points=[];" parent="rZa_sODycS4ORoVSW2ID-112" vertex="1" connectable="0">
          <mxGeometry x="0.2566" y="4" relative="1" as="geometry">
            <mxPoint x="1" as="offset" />
          </mxGeometry>
        </mxCell>
        <mxCell id="rZa_sODycS4ORoVSW2ID-115" style="edgeStyle=orthogonalEdgeStyle;rounded=0;orthogonalLoop=1;jettySize=auto;html=1;exitX=1;exitY=0.25;exitDx=0;exitDy=0;entryX=0;entryY=0.5;entryDx=0;entryDy=0;endArrow=none;endFill=0;startArrow=classic;startFill=1;" parent="WIyWlLk6GJQsqaUBKTNV-1" source="rZa_sODycS4ORoVSW2ID-106" target="rZa_sODycS4ORoVSW2ID-6" edge="1">
          <mxGeometry relative="1" as="geometry" />
        </mxCell>
        <mxCell id="rZa_sODycS4ORoVSW2ID-116" value="&lt;div&gt;scrapes mushroom data of&amp;nbsp;&lt;/div&gt;&lt;div&gt;Top-N Likelihoods of Predictions&lt;/div&gt;" style="edgeLabel;html=1;align=center;verticalAlign=middle;resizable=0;points=[];" parent="rZa_sODycS4ORoVSW2ID-115" vertex="1" connectable="0">
          <mxGeometry x="-0.2769" y="-4" relative="1" as="geometry">
            <mxPoint x="30" y="-1" as="offset" />
          </mxGeometry>
        </mxCell>
        <mxCell id="rZa_sODycS4ORoVSW2ID-119" style="edgeStyle=orthogonalEdgeStyle;rounded=0;orthogonalLoop=1;jettySize=auto;html=1;exitX=0;exitY=0.25;exitDx=0;exitDy=0;entryX=0.75;entryY=1;entryDx=0;entryDy=0;" parent="WIyWlLk6GJQsqaUBKTNV-1" source="rZa_sODycS4ORoVSW2ID-106" target="rZa_sODycS4ORoVSW2ID-105" edge="1">
          <mxGeometry relative="1" as="geometry" />
        </mxCell>
        <mxCell id="rZa_sODycS4ORoVSW2ID-120" value="&lt;div&gt;returns:&lt;/div&gt;&lt;div&gt;- Top-N Likelihood Predictions&lt;/div&gt;&lt;div&gt;- Wikipedia Mushroom Infos&lt;/div&gt;&lt;div&gt;- Images for Top-N Mushrooms&lt;br&gt;&lt;/div&gt;" style="edgeLabel;html=1;align=center;verticalAlign=middle;resizable=0;points=[];" parent="rZa_sODycS4ORoVSW2ID-119" vertex="1" connectable="0">
          <mxGeometry x="0.482" y="1" relative="1" as="geometry">
            <mxPoint x="71" y="-7" as="offset" />
          </mxGeometry>
        </mxCell>
        <mxCell id="rZa_sODycS4ORoVSW2ID-106" value="API" style="rounded=1;whiteSpace=wrap;html=1;" parent="WIyWlLk6GJQsqaUBKTNV-1" vertex="1">
          <mxGeometry x="1500" y="192.5" width="120" height="60" as="geometry" />
        </mxCell>
        <mxCell id="rZa_sODycS4ORoVSW2ID-110" style="edgeStyle=orthogonalEdgeStyle;rounded=0;orthogonalLoop=1;jettySize=auto;html=1;exitX=0.5;exitY=1;exitDx=0;exitDy=0;entryX=0.107;entryY=1.017;entryDx=0;entryDy=0;entryPerimeter=0;startArrow=classic;startFill=1;" parent="WIyWlLk6GJQsqaUBKTNV-1" source="rZa_sODycS4ORoVSW2ID-106" target="rZa_sODycS4ORoVSW2ID-20" edge="1">
          <mxGeometry relative="1" as="geometry">
            <Array as="points">
              <mxPoint x="1560" y="620" />
              <mxPoint x="314" y="620" />
            </Array>
          </mxGeometry>
        </mxCell>
        <mxCell id="rZa_sODycS4ORoVSW2ID-111" value="applies basic preprocessing" style="edgeLabel;html=1;align=center;verticalAlign=middle;resizable=0;points=[];" parent="rZa_sODycS4ORoVSW2ID-110" vertex="1" connectable="0">
          <mxGeometry x="-0.0689" y="4" relative="1" as="geometry">
            <mxPoint as="offset" />
          </mxGeometry>
        </mxCell>
        <mxCell id="rZa_sODycS4ORoVSW2ID-121" value="Human-in-the-Loop Idea: Some Mushrooms look closely similar, so Users should be the final, deciding factor by comparing returned class images with input to decide." style="text;html=1;align=center;verticalAlign=middle;whiteSpace=wrap;rounded=0;" parent="WIyWlLk6GJQsqaUBKTNV-1" vertex="1">
          <mxGeometry x="1340" y="20" width="330" height="60" as="geometry" />
        </mxCell>
      </root>
    </mxGraphModel>
  </diagram>
</mxfile>
